<mxfile host="app.diagrams.net" modified="2022-04-28T20:33:34.374Z" agent="5.0 (Windows NT 10.0; Win64; x64) AppleWebKit/537.36 (KHTML, like Gecko) Chrome/101.0.4951.41 Safari/537.36" etag="cnK2CgnJn_J7BdUxJNIW" version="17.4.6" type="github">
  <diagram id="ipV5bCDcp4yP_SuL-ZKq" name="Page-1">
    <mxGraphModel dx="1183" dy="698" grid="1" gridSize="10" guides="1" tooltips="1" connect="1" arrows="1" fold="1" page="1" pageScale="1" pageWidth="850" pageHeight="1100" math="0" shadow="0">
      <root>
        <mxCell id="0" />
        <mxCell id="1" parent="0" />
        <mxCell id="Z-sTHvwf4mCsXabu1iXU-16" style="edgeStyle=orthogonalEdgeStyle;rounded=0;orthogonalLoop=1;jettySize=auto;html=1;fontSize=16;" edge="1" parent="1" source="Z-sTHvwf4mCsXabu1iXU-1">
          <mxGeometry relative="1" as="geometry">
            <mxPoint x="550" y="515" as="targetPoint" />
          </mxGeometry>
        </mxCell>
        <mxCell id="Z-sTHvwf4mCsXabu1iXU-28" style="edgeStyle=orthogonalEdgeStyle;rounded=0;orthogonalLoop=1;jettySize=auto;html=1;exitX=0.5;exitY=1;exitDx=0;exitDy=0;entryX=0.5;entryY=0;entryDx=0;entryDy=0;fontSize=14;" edge="1" parent="1" source="Z-sTHvwf4mCsXabu1iXU-1" target="Z-sTHvwf4mCsXabu1iXU-26">
          <mxGeometry relative="1" as="geometry" />
        </mxCell>
        <mxCell id="Z-sTHvwf4mCsXabu1iXU-42" style="edgeStyle=orthogonalEdgeStyle;rounded=0;orthogonalLoop=1;jettySize=auto;html=1;exitX=0;exitY=0.25;exitDx=0;exitDy=0;entryX=0.5;entryY=1;entryDx=0;entryDy=0;fontSize=10;" edge="1" parent="1" source="Z-sTHvwf4mCsXabu1iXU-1" target="Z-sTHvwf4mCsXabu1iXU-21">
          <mxGeometry relative="1" as="geometry">
            <Array as="points">
              <mxPoint x="315" y="490" />
              <mxPoint x="80" y="490" />
            </Array>
          </mxGeometry>
        </mxCell>
        <mxCell id="Z-sTHvwf4mCsXabu1iXU-1" value="&lt;font style=&quot;font-size: 21px&quot;&gt;uCU&lt;/font&gt;" style="whiteSpace=wrap;html=1;aspect=fixed;" vertex="1" parent="1">
          <mxGeometry x="315" y="460" width="110" height="110" as="geometry" />
        </mxCell>
        <mxCell id="Z-sTHvwf4mCsXabu1iXU-5" value="" style="edgeStyle=orthogonalEdgeStyle;rounded=0;orthogonalLoop=1;jettySize=auto;html=1;fontSize=21;entryX=0.25;entryY=0;entryDx=0;entryDy=0;" edge="1" parent="1" source="Z-sTHvwf4mCsXabu1iXU-2" target="Z-sTHvwf4mCsXabu1iXU-1">
          <mxGeometry relative="1" as="geometry">
            <mxPoint x="270" y="470" as="targetPoint" />
          </mxGeometry>
        </mxCell>
        <mxCell id="Z-sTHvwf4mCsXabu1iXU-2" value="&lt;font style=&quot;font-size: 17px&quot;&gt;ToF Sensor&amp;nbsp;&lt;/font&gt;" style="rounded=0;whiteSpace=wrap;html=1;" vertex="1" parent="1">
          <mxGeometry x="210" y="330" width="120" height="60" as="geometry" />
        </mxCell>
        <mxCell id="Z-sTHvwf4mCsXabu1iXU-8" style="edgeStyle=orthogonalEdgeStyle;rounded=0;orthogonalLoop=1;jettySize=auto;html=1;entryX=0.75;entryY=0;entryDx=0;entryDy=0;fontSize=21;" edge="1" parent="1" source="Z-sTHvwf4mCsXabu1iXU-6" target="Z-sTHvwf4mCsXabu1iXU-1">
          <mxGeometry relative="1" as="geometry" />
        </mxCell>
        <mxCell id="Z-sTHvwf4mCsXabu1iXU-6" value="&lt;font style=&quot;font-size: 17px&quot;&gt;Strain Gauge Sensor&amp;nbsp;&lt;/font&gt;" style="rounded=0;whiteSpace=wrap;html=1;" vertex="1" parent="1">
          <mxGeometry x="420" y="330" width="120" height="60" as="geometry" />
        </mxCell>
        <mxCell id="Z-sTHvwf4mCsXabu1iXU-12" value="" style="rounded=0;whiteSpace=wrap;html=1;fontSize=21;" vertex="1" parent="1">
          <mxGeometry x="550" y="420" width="120" height="190" as="geometry" />
        </mxCell>
        <mxCell id="Z-sTHvwf4mCsXabu1iXU-13" value="&lt;font style=&quot;font-size: 16px&quot;&gt;Servo1&lt;/font&gt;" style="rounded=0;whiteSpace=wrap;html=1;fontSize=21;" vertex="1" parent="1">
          <mxGeometry x="570" y="440" width="80" height="60" as="geometry" />
        </mxCell>
        <mxCell id="Z-sTHvwf4mCsXabu1iXU-15" value="&lt;span style=&quot;font-size: 16px&quot;&gt;Servo2&lt;/span&gt;" style="rounded=0;whiteSpace=wrap;html=1;fontSize=21;" vertex="1" parent="1">
          <mxGeometry x="570" y="530" width="80" height="60" as="geometry" />
        </mxCell>
        <mxCell id="Z-sTHvwf4mCsXabu1iXU-20" value="&lt;h1&gt;&lt;span&gt;Hardware Components and their Integration&lt;/span&gt;&lt;br&gt;&lt;/h1&gt;" style="text;html=1;strokeColor=none;fillColor=none;spacing=5;spacingTop=-20;whiteSpace=wrap;overflow=hidden;rounded=0;fontSize=16;" vertex="1" parent="1">
          <mxGeometry x="20" y="190" width="360" height="120" as="geometry" />
        </mxCell>
        <mxCell id="Z-sTHvwf4mCsXabu1iXU-31" style="edgeStyle=orthogonalEdgeStyle;rounded=0;orthogonalLoop=1;jettySize=auto;html=1;fontSize=14;entryX=0.045;entryY=0.091;entryDx=0;entryDy=0;entryPerimeter=0;" edge="1" parent="1" source="Z-sTHvwf4mCsXabu1iXU-21" target="Z-sTHvwf4mCsXabu1iXU-1">
          <mxGeometry relative="1" as="geometry">
            <mxPoint x="290" y="470" as="targetPoint" />
            <Array as="points">
              <mxPoint x="240" y="435" />
              <mxPoint x="240" y="470" />
            </Array>
          </mxGeometry>
        </mxCell>
        <mxCell id="Z-sTHvwf4mCsXabu1iXU-53" style="edgeStyle=orthogonalEdgeStyle;rounded=0;orthogonalLoop=1;jettySize=auto;html=1;exitX=0.25;exitY=1;exitDx=0;exitDy=0;fontSize=7;" edge="1" parent="1" source="Z-sTHvwf4mCsXabu1iXU-21" target="Z-sTHvwf4mCsXabu1iXU-1">
          <mxGeometry relative="1" as="geometry" />
        </mxCell>
        <mxCell id="Z-sTHvwf4mCsXabu1iXU-21" value="AutoPilot" style="rounded=0;whiteSpace=wrap;html=1;fontSize=16;" vertex="1" parent="1">
          <mxGeometry x="10" y="400" width="140" height="70" as="geometry" />
        </mxCell>
        <mxCell id="Z-sTHvwf4mCsXabu1iXU-24" style="edgeStyle=orthogonalEdgeStyle;rounded=0;orthogonalLoop=1;jettySize=auto;html=1;exitX=1;exitY=0.5;exitDx=0;exitDy=0;entryX=0;entryY=0.5;entryDx=0;entryDy=0;fontSize=10;" edge="1" parent="1" source="Z-sTHvwf4mCsXabu1iXU-22" target="Z-sTHvwf4mCsXabu1iXU-23">
          <mxGeometry relative="1" as="geometry" />
        </mxCell>
        <mxCell id="Z-sTHvwf4mCsXabu1iXU-27" style="edgeStyle=orthogonalEdgeStyle;rounded=0;orthogonalLoop=1;jettySize=auto;html=1;exitX=0.5;exitY=1;exitDx=0;exitDy=0;entryX=0;entryY=0.5;entryDx=0;entryDy=0;fontSize=14;" edge="1" parent="1" source="Z-sTHvwf4mCsXabu1iXU-22" target="Z-sTHvwf4mCsXabu1iXU-26">
          <mxGeometry relative="1" as="geometry" />
        </mxCell>
        <mxCell id="Z-sTHvwf4mCsXabu1iXU-22" value="Battery" style="rounded=0;whiteSpace=wrap;html=1;fontSize=16;" vertex="1" parent="1">
          <mxGeometry x="20" y="525" width="120" height="60" as="geometry" />
        </mxCell>
        <mxCell id="Z-sTHvwf4mCsXabu1iXU-43" style="edgeStyle=orthogonalEdgeStyle;rounded=0;orthogonalLoop=1;jettySize=auto;html=1;exitX=1;exitY=0.5;exitDx=0;exitDy=0;entryX=0.045;entryY=0.864;entryDx=0;entryDy=0;entryPerimeter=0;fontSize=10;" edge="1" parent="1" source="Z-sTHvwf4mCsXabu1iXU-23" target="Z-sTHvwf4mCsXabu1iXU-1">
          <mxGeometry relative="1" as="geometry" />
        </mxCell>
        <mxCell id="Z-sTHvwf4mCsXabu1iXU-23" value="&lt;font style=&quot;font-size: 10px&quot;&gt;Regulator&lt;/font&gt;" style="rounded=0;whiteSpace=wrap;html=1;fontSize=16;" vertex="1" parent="1">
          <mxGeometry x="180" y="530" width="70" height="50" as="geometry" />
        </mxCell>
        <mxCell id="Z-sTHvwf4mCsXabu1iXU-30" style="edgeStyle=orthogonalEdgeStyle;rounded=0;orthogonalLoop=1;jettySize=auto;html=1;exitX=1;exitY=0.5;exitDx=0;exitDy=0;entryX=0;entryY=0.5;entryDx=0;entryDy=0;fontSize=14;" edge="1" parent="1" source="Z-sTHvwf4mCsXabu1iXU-26" target="Z-sTHvwf4mCsXabu1iXU-29">
          <mxGeometry relative="1" as="geometry" />
        </mxCell>
        <mxCell id="Z-sTHvwf4mCsXabu1iXU-26" value="&lt;font style=&quot;font-size: 14px&quot;&gt;Electronic Speed Controller&lt;br&gt;&lt;/font&gt;(With H bridge for direction control)&amp;nbsp;" style="rounded=0;whiteSpace=wrap;html=1;fontSize=10;" vertex="1" parent="1">
          <mxGeometry x="310" y="660" width="120" height="60" as="geometry" />
        </mxCell>
        <mxCell id="Z-sTHvwf4mCsXabu1iXU-29" value="Brushed DC Motor with gears&amp;nbsp;" style="ellipse;whiteSpace=wrap;html=1;aspect=fixed;fontSize=14;" vertex="1" parent="1">
          <mxGeometry x="565" y="645" width="90" height="90" as="geometry" />
        </mxCell>
        <mxCell id="Z-sTHvwf4mCsXabu1iXU-33" value="&lt;font style=&quot;font-size: 10px&quot;&gt;ServoPWM&lt;/font&gt;" style="text;html=1;strokeColor=none;fillColor=none;align=center;verticalAlign=middle;whiteSpace=wrap;rounded=0;fontSize=14;" vertex="1" parent="1">
          <mxGeometry x="450" y="490" width="60" height="30" as="geometry" />
        </mxCell>
        <mxCell id="Z-sTHvwf4mCsXabu1iXU-34" value="MotorPWM" style="text;html=1;strokeColor=none;fillColor=none;align=center;verticalAlign=middle;whiteSpace=wrap;rounded=0;fontSize=10;rotation=90;" vertex="1" parent="1">
          <mxGeometry x="350" y="600" width="60" height="30" as="geometry" />
        </mxCell>
        <mxCell id="Z-sTHvwf4mCsXabu1iXU-36" value="Forward/Backward" style="text;html=1;strokeColor=none;fillColor=none;align=center;verticalAlign=middle;whiteSpace=wrap;rounded=0;fontSize=10;" vertex="1" parent="1">
          <mxGeometry x="470" y="660" width="60" height="30" as="geometry" />
        </mxCell>
        <mxCell id="Z-sTHvwf4mCsXabu1iXU-37" value="rawDistance Data" style="text;html=1;strokeColor=none;fillColor=none;align=center;verticalAlign=middle;whiteSpace=wrap;rounded=0;fontSize=10;" vertex="1" parent="1">
          <mxGeometry x="270" y="400" width="60" height="30" as="geometry" />
        </mxCell>
        <mxCell id="Z-sTHvwf4mCsXabu1iXU-38" value="rawTension Data" style="text;html=1;align=center;verticalAlign=middle;resizable=0;points=[];autosize=1;strokeColor=none;fillColor=none;fontSize=10;" vertex="1" parent="1">
          <mxGeometry x="390" y="405" width="90" height="20" as="geometry" />
        </mxCell>
        <mxCell id="Z-sTHvwf4mCsXabu1iXU-40" value="&lt;font style=&quot;font-size: 9px&quot;&gt;Height Estimate&lt;/font&gt;" style="text;html=1;align=center;verticalAlign=middle;resizable=0;points=[];autosize=1;strokeColor=none;fillColor=none;fontSize=10;" vertex="1" parent="1">
          <mxGeometry x="150" y="420" width="80" height="20" as="geometry" />
        </mxCell>
        <mxCell id="Z-sTHvwf4mCsXabu1iXU-44" value="&lt;font style=&quot;font-size: 7px&quot;&gt;TaskCompletion Cmd&lt;/font&gt;" style="text;html=1;strokeColor=none;fillColor=none;align=center;verticalAlign=middle;whiteSpace=wrap;rounded=0;fontSize=10;" vertex="1" parent="1">
          <mxGeometry x="160" y="470" width="80" height="20" as="geometry" />
        </mxCell>
        <mxCell id="Z-sTHvwf4mCsXabu1iXU-45" value="&lt;font style=&quot;font-size: 7px&quot;&gt;5v&lt;/font&gt;" style="text;html=1;strokeColor=none;fillColor=none;align=center;verticalAlign=middle;whiteSpace=wrap;rounded=0;fontSize=10;" vertex="1" parent="1">
          <mxGeometry x="260" y="540" width="30" height="10" as="geometry" />
        </mxCell>
        <mxCell id="Z-sTHvwf4mCsXabu1iXU-46" value="14.8V" style="text;html=1;strokeColor=none;fillColor=none;align=center;verticalAlign=middle;whiteSpace=wrap;rounded=0;fontSize=7;" vertex="1" parent="1">
          <mxGeometry x="135" y="545" width="45" height="10" as="geometry" />
        </mxCell>
        <mxCell id="Z-sTHvwf4mCsXabu1iXU-54" value="&lt;font style=&quot;font-size: 7px&quot;&gt;StartSequence&lt;/font&gt;" style="text;html=1;strokeColor=none;fillColor=none;align=center;verticalAlign=middle;whiteSpace=wrap;rounded=0;fontSize=9;" vertex="1" parent="1">
          <mxGeometry x="165" y="500" width="50" height="20" as="geometry" />
        </mxCell>
      </root>
    </mxGraphModel>
  </diagram>
</mxfile>
